# xmcd CD database file
#
# Track frame offsets:
#	150
#	62385
#	125779
#	175494
#	205363
#	258102
#
# Disc length: 4010 seconds
#
# Revision: 0
# Processed by: cddbd v1.5.2PL0 Copyright (c) Steve Scherf et al.
# Submitted via: CDex 1.51
#
DISCID=540fa806
DTITLE=Ari Brown - Live At The Green Mill
DYEAR=2007
DGENRE=Jazz
TTITLE0=Richard's Tune
TTITLE1=One For Skip
TTITLE2=Shorter's Vibes
TTITLE3=Two Gun V
TTITLE4=Kylee's Lullabye
TTITLE5=Evod
EXTD=YEAR: 2007
EXTT0=
EXTT1=
EXTT2=
EXTT3=
EXTT4=
EXTT5=
PLAYORDER=
